<svg width="17" height="17" viewBox="0 0 17 17" fill="none" xmlns="http://www.w3.org/2000/svg"><rect opacity="0.01" x="16.3049" y="16.6739" width="16" height="16" transform="rotate(180 16.3049 16.6739)" fill="black"/><path fill-rule="evenodd" clip-rule="evenodd" d="M1.63818 8.67391C1.63818 4.99202 4.62295 2.00725 8.30485 2.00725C10.073 2.00725 11.7687 2.70963 13.0189 3.95987C14.2691 5.21011 14.9715 6.9058 14.9715 8.67391C14.9715 12.3558 11.9867 15.3406 8.30485 15.3406C4.62295 15.3406 1.63818 12.3558 1.63818 8.67391ZM8.30485 9.34058H10.9715C11.3397 9.34058 11.6382 9.0421 11.6382 8.67391C11.6382 8.30572 11.3397 8.00725 10.9715 8.00725H8.97152V6.00725C8.97152 5.63906 8.67304 5.34058 8.30485 5.34058C7.93666 5.34058 7.63818 5.63906 7.63818 6.00725V8.67391C7.63818 9.0421 7.93666 9.34058 8.30485 9.34058Z" fill="white"/></svg>
